<svg id="visual" viewBox="0 0 900 600" width="900" height="600" xmlns="http://www.w3.org/2000/svg" xmlns:xlink="http://www.w3.org/1999/xlink" version="1.1"><rect x="0" y="0" width="900" height="600" fill="#1d2528"></rect><defs><linearGradient id="grad1_0" x1="33.3%" y1="0%" x2="100%" y2="100%"><stop offset="20%" stop-color="#703cfa" stop-opacity="1"></stop><stop offset="80%" stop-color="#703cfa" stop-opacity="1"></stop></linearGradient></defs><defs><linearGradient id="grad1_1" x1="33.3%" y1="0%" x2="100%" y2="100%"><stop offset="20%" stop-color="#703cfa" stop-opacity="1"></stop><stop offset="80%" stop-color="#0051d6" stop-opacity="1"></stop></linearGradient></defs><defs><linearGradient id="grad1_2" x1="33.3%" y1="0%" x2="100%" y2="100%"><stop offset="20%" stop-color="#004b9c" stop-opacity="1"></stop><stop offset="80%" stop-color="#0051d6" stop-opacity="1"></stop></linearGradient></defs><defs><linearGradient id="grad1_3" x1="33.3%" y1="0%" x2="100%" y2="100%"><stop offset="20%" stop-color="#004b9c" stop-opacity="1"></stop><stop offset="80%" stop-color="#003a5d" stop-opacity="1"></stop></linearGradient></defs><defs><linearGradient id="grad1_4" x1="33.3%" y1="0%" x2="100%" y2="100%"><stop offset="20%" stop-color="#1d2528" stop-opacity="1"></stop><stop offset="80%" stop-color="#003a5d" stop-opacity="1"></stop></linearGradient></defs><defs><linearGradient id="grad2_0" x1="0%" y1="0%" x2="66.7%" y2="100%"><stop offset="20%" stop-color="#703cfa" stop-opacity="1"></stop><stop offset="80%" stop-color="#703cfa" stop-opacity="1"></stop></linearGradient></defs><defs><linearGradient id="grad2_1" x1="0%" y1="0%" x2="66.7%" y2="100%"><stop offset="20%" stop-color="#0051d6" stop-opacity="1"></stop><stop offset="80%" stop-color="#703cfa" stop-opacity="1"></stop></linearGradient></defs><defs><linearGradient id="grad2_2" x1="0%" y1="0%" x2="66.7%" y2="100%"><stop offset="20%" stop-color="#0051d6" stop-opacity="1"></stop><stop offset="80%" stop-color="#004b9c" stop-opacity="1"></stop></linearGradient></defs><defs><linearGradient id="grad2_3" x1="0%" y1="0%" x2="66.7%" y2="100%"><stop offset="20%" stop-color="#003a5d" stop-opacity="1"></stop><stop offset="80%" stop-color="#004b9c" stop-opacity="1"></stop></linearGradient></defs><defs><linearGradient id="grad2_4" x1="0%" y1="0%" x2="66.7%" y2="100%"><stop offset="20%" stop-color="#003a5d" stop-opacity="1"></stop><stop offset="80%" stop-color="#1d2528" stop-opacity="1"></stop></linearGradient></defs><g transform="translate(900, 0)"><path d="M0 355C-20.9 356.9 -41.8 358.7 -76.9 386.4C-111.9 414.1 -161 467.6 -196.6 474.7C-232.2 481.8 -254.2 442.4 -270 404.1C-285.8 365.8 -295.4 328.5 -288.5 288.5C-281.6 248.5 -258.3 205.7 -277.7 185.6C-297.1 165.4 -359.3 167.9 -359.4 148.9C-359.5 129.8 -297.6 89.3 -306 60.9C-314.4 32.5 -393.2 16.2 -472 0L0 0Z" fill="#003040"></path><path d="M0 284C-16.7 285.5 -33.5 287 -61.5 309.1C-89.5 331.3 -128.8 374.1 -157.3 379.7C-185.8 385.4 -203.4 353.9 -216 323.3C-228.6 292.6 -236.3 262.8 -230.8 230.8C-225.3 198.8 -206.6 164.6 -222.2 148.4C-237.7 132.3 -287.4 134.3 -287.5 119.1C-287.6 103.9 -238.1 71.4 -244.8 48.7C-251.5 26 -314.6 13 -377.6 0L0 0Z" fill="#00437c"></path><path d="M0 213C-12.6 214.1 -25.1 215.2 -46.1 231.9C-67.1 248.5 -96.6 280.6 -118 284.8C-139.3 289.1 -152.5 265.4 -162 242.5C-171.5 219.5 -177.2 197.1 -173.1 173.1C-169 149.1 -155 123.4 -166.6 111.3C-178.3 99.2 -215.6 100.7 -215.6 89.3C-215.7 77.9 -178.5 53.6 -183.6 36.5C-188.7 19.5 -235.9 9.7 -283.2 0L0 0Z" fill="#0050bb"></path><path d="M0 142C-8.4 142.7 -16.7 143.5 -30.7 154.6C-44.8 165.6 -64.4 187 -78.6 189.9C-92.9 192.7 -101.7 177 -108 161.6C-114.3 146.3 -118.2 131.4 -115.4 115.4C-112.6 99.4 -103.3 82.3 -111.1 74.2C-118.8 66.2 -143.7 67.2 -143.8 59.5C-143.8 51.9 -119 35.7 -122.4 24.3C-125.8 13 -157.3 6.5 -188.8 0L0 0Z" fill="#004cec"></path><path d="M0 71C-4.2 71.4 -8.4 71.7 -15.4 77.3C-22.4 82.8 -32.2 93.5 -39.3 94.9C-46.4 96.4 -50.8 88.5 -54 80.8C-57.2 73.2 -59.1 65.7 -57.7 57.7C-56.3 49.7 -51.7 41.1 -55.5 37.1C-59.4 33.1 -71.9 33.6 -71.9 29.8C-71.9 26 -59.5 17.9 -61.2 12.2C-62.9 6.5 -78.6 3.2 -94.4 0L0 0Z" fill="#703cfa"></path></g><g transform="translate(0, 600)"><path d="M0 -388C29.6 -426.4 59.3 -464.8 96.4 -484.5C133.5 -504.2 178.1 -505.2 190.6 -460.1C203.1 -415 183.5 -323.9 197.8 -296C212.1 -268.1 260.2 -303.3 316.8 -316.8C373.4 -330.3 438.5 -322 415.7 -277.8C393 -233.6 282.3 -153.5 297.5 -123.2C312.7 -92.9 453.7 -112.5 503.9 -100.2C554.1 -88 513.6 -44 473 0L0 0Z" fill="#003040"></path><path d="M0 -310.4C23.7 -341.1 47.4 -371.9 77.1 -387.6C106.8 -403.4 142.5 -404.1 152.5 -368.1C162.5 -332 146.8 -259.1 158.2 -236.8C169.6 -214.5 208.1 -242.6 253.4 -253.4C298.7 -264.2 350.8 -257.6 332.6 -222.2C314.4 -186.9 225.8 -122.8 238 -98.6C250.1 -74.4 363 -90 403.1 -80.2C443.3 -70.4 410.9 -35.2 378.4 0L0 0Z" fill="#00437c"></path><path d="M0 -232.8C17.8 -255.8 35.6 -278.9 57.8 -290.7C80.1 -302.5 106.8 -303.1 114.3 -276.1C121.8 -249 110.1 -194.4 118.7 -177.6C127.2 -160.8 156.1 -182 190.1 -190.1C224 -198.2 263.1 -193.2 249.4 -166.7C235.8 -140.2 169.4 -92.1 178.5 -73.9C187.6 -55.8 272.2 -67.5 302.4 -60.1C332.5 -52.8 308.1 -26.4 283.8 0L0 0Z" fill="#0050bb"></path><path d="M0 -155.2C11.9 -170.6 23.7 -185.9 38.5 -193.8C53.4 -201.7 71.2 -202.1 76.2 -184C81.2 -166 73.4 -129.6 79.1 -118.4C84.8 -107.2 104.1 -121.3 126.7 -126.7C149.4 -132.1 175.4 -128.8 166.3 -111.1C157.2 -93.4 112.9 -61.4 119 -49.3C125.1 -37.2 181.5 -45 201.6 -40.1C221.7 -35.2 205.4 -17.6 189.2 0L0 0Z" fill="#004cec"></path><path d="M0 -77.6C5.9 -85.3 11.9 -93 19.3 -96.9C26.7 -100.8 35.6 -101 38.1 -92C40.6 -83 36.7 -64.8 39.6 -59.2C42.4 -53.6 52 -60.7 63.4 -63.4C74.7 -66.1 87.7 -64.4 83.1 -55.6C78.6 -46.7 56.5 -30.7 59.5 -24.6C62.5 -18.6 90.7 -22.5 100.8 -20C110.8 -17.6 102.7 -8.8 94.6 0L0 0Z" fill="#703cfa"></path></g></svg>