<svg id="visual" viewBox="0 0 960 540" width="960" height="540" xmlns="http://www.w3.org/2000/svg" xmlns:xlink="http://www.w3.org/1999/xlink" version="1.1"><rect x="0" y="0" width="960" height="540" fill="#001220"></rect><defs><linearGradient id="grad1_0" x1="43.8%" y1="0%" x2="100%" y2="100%"><stop offset="14.444444444444446%" stop-color="#fbae3c" stop-opacity="1"></stop><stop offset="85.55555555555554%" stop-color="#fbae3c" stop-opacity="1"></stop></linearGradient></defs><defs><linearGradient id="grad1_1" x1="43.8%" y1="0%" x2="100%" y2="100%"><stop offset="14.444444444444446%" stop-color="#fbae3c" stop-opacity="1"></stop><stop offset="85.55555555555554%" stop-color="#cc5867" stop-opacity="1"></stop></linearGradient></defs><defs><linearGradient id="grad1_2" x1="43.8%" y1="0%" x2="100%" y2="100%"><stop offset="14.444444444444446%" stop-color="#593762" stop-opacity="1"></stop><stop offset="85.55555555555554%" stop-color="#cc5867" stop-opacity="1"></stop></linearGradient></defs><defs><linearGradient id="grad1_3" x1="43.8%" y1="0%" x2="100%" y2="100%"><stop offset="14.444444444444446%" stop-color="#593762" stop-opacity="1"></stop><stop offset="85.55555555555554%" stop-color="#001220" stop-opacity="1"></stop></linearGradient></defs><defs><linearGradient id="grad2_0" x1="0%" y1="0%" x2="56.3%" y2="100%"><stop offset="14.444444444444446%" stop-color="#fbae3c" stop-opacity="1"></stop><stop offset="85.55555555555554%" stop-color="#fbae3c" stop-opacity="1"></stop></linearGradient></defs><defs><linearGradient id="grad2_1" x1="0%" y1="0%" x2="56.3%" y2="100%"><stop offset="14.444444444444446%" stop-color="#cc5867" stop-opacity="1"></stop><stop offset="85.55555555555554%" stop-color="#fbae3c" stop-opacity="1"></stop></linearGradient></defs><defs><linearGradient id="grad2_2" x1="0%" y1="0%" x2="56.3%" y2="100%"><stop offset="14.444444444444446%" stop-color="#cc5867" stop-opacity="1"></stop><stop offset="85.55555555555554%" stop-color="#593762" stop-opacity="1"></stop></linearGradient></defs><defs><linearGradient id="grad2_3" x1="0%" y1="0%" x2="56.3%" y2="100%"><stop offset="14.444444444444446%" stop-color="#001220" stop-opacity="1"></stop><stop offset="85.55555555555554%" stop-color="#593762" stop-opacity="1"></stop></linearGradient></defs><g transform="translate(960, 0)"><path d="M0 540C-47.1 528.7 -94.3 517.5 -133 496.5C-171.8 475.5 -202.2 444.7 -247 427.8C-291.8 410.9 -351.1 407.9 -374.8 374.8C-398.5 341.7 -386.6 278.5 -410.5 237C-434.4 195.5 -494.1 175.7 -521.6 139.8C-549.1 103.9 -544.6 51.9 -540 0L0 0Z" fill="#232745"></path><path d="M0 405C-35.4 396.6 -70.7 388.1 -99.8 372.4C-128.8 356.6 -151.6 333.5 -185.2 320.9C-218.9 308.2 -263.3 305.9 -281.1 281.1C-298.8 256.2 -289.9 208.9 -307.9 177.8C-325.8 146.6 -370.5 131.7 -391.2 104.8C-411.9 77.9 -408.4 39 -405 0L0 0Z" fill="#96446e"></path><path d="M0 270C-23.6 264.4 -47.1 258.7 -66.5 248.2C-85.9 237.7 -101.1 222.4 -123.5 213.9C-145.9 205.5 -175.5 203.9 -187.4 187.4C-199.2 170.8 -193.3 139.3 -205.2 118.5C-217.2 97.7 -247 87.8 -260.8 69.9C-274.6 51.9 -272.3 26 -270 0L0 0Z" fill="#f17c53"></path><path d="M0 135C-11.8 132.2 -23.6 129.4 -33.3 124.1C-42.9 118.9 -50.5 111.2 -61.7 107C-73 102.7 -87.8 102 -93.7 93.7C-99.6 85.4 -96.6 69.6 -102.6 59.3C-108.6 48.9 -123.5 43.9 -130.4 34.9C-137.3 26 -136.1 13 -135 0L0 0Z" fill="#fbae3c"></path></g><g transform="translate(0, 540)"><path d="M0 -540C43.6 -528.4 87.2 -516.8 136.7 -510C186.1 -503.2 241.3 -501.2 270 -467.7C298.7 -434.1 301 -369.2 335.2 -335.2C369.4 -301.2 435.5 -298.1 464.2 -268C492.9 -237.9 484.3 -180.7 490.7 -131.5C497.1 -82.3 518.5 -41.1 540 0L0 0Z" fill="#232745"></path><path d="M0 -405C32.7 -396.3 65.4 -387.6 102.5 -382.5C139.6 -377.4 181 -375.9 202.5 -350.7C224 -325.6 225.7 -276.9 251.4 -251.4C277 -225.9 326.6 -223.6 348.1 -201C369.7 -178.4 363.2 -135.5 368 -98.6C372.8 -61.7 388.9 -30.9 405 0L0 0Z" fill="#96446e"></path><path d="M0 -270C21.8 -264.2 43.6 -258.4 68.3 -255C93 -251.6 120.6 -250.6 135 -233.8C149.4 -217.1 150.5 -184.6 167.6 -167.6C184.7 -150.6 217.7 -149.1 232.1 -134C246.5 -118.9 242.1 -90.3 245.3 -65.7C248.5 -41.1 259.3 -20.6 270 0L0 0Z" fill="#f17c53"></path><path d="M0 -135C10.9 -132.1 21.8 -129.2 34.2 -127.5C46.5 -125.8 60.3 -125.3 67.5 -116.9C74.7 -108.5 75.2 -92.3 83.8 -83.8C92.3 -75.3 108.9 -74.5 116 -67C123.2 -59.5 121.1 -45.2 122.7 -32.9C124.3 -20.6 129.6 -10.3 135 0L0 0Z" fill="#fbae3c"></path></g></svg>