<svg id="visual" viewBox="0 0 900 600" width="900" height="600" xmlns="http://www.w3.org/2000/svg" xmlns:xlink="http://www.w3.org/1999/xlink" version="1.1"><path d="M0 127L180 97L360 121L540 133L720 121L900 85L900 0L720 0L540 0L360 0L180 0L0 0Z" fill="#000116"></path><path d="M0 211L180 133L360 241L540 169L720 187L900 163L900 83L720 119L540 131L360 119L180 95L0 125Z" fill="#111425"></path><path d="M0 259L180 211L360 253L540 211L720 223L900 205L900 161L720 185L540 167L360 239L180 131L0 209Z" fill="#1c2136"></path><path d="M0 319L180 259L360 271L540 307L720 259L900 277L900 203L720 221L540 209L360 251L180 209L0 257Z" fill="#272d48"></path><path d="M0 355L180 277L360 343L540 361L720 283L900 349L900 275L720 257L540 305L360 269L180 257L0 317Z" fill="#333b5a"></path><path d="M0 403L180 373L360 475L540 523L720 487L900 523L900 347L720 281L540 359L360 341L180 275L0 353Z" fill="#3f496d"></path><path d="M0 463L180 427L360 565L540 547L720 577L900 547L900 521L720 485L540 521L360 473L180 371L0 401Z" fill="#4c5781"></path><path d="M0 601L180 601L360 601L540 601L720 601L900 601L900 545L720 575L540 545L360 563L180 425L0 461Z" fill="#596695"></path></svg>