<svg id="visual" viewBox="0 0 960 540" width="960" height="540" xmlns="http://www.w3.org/2000/svg" xmlns:xlink="http://www.w3.org/1999/xlink" version="1.1"><rect width="960" height="540" fill="#001829"></rect><g><g transform="translate(59 370)"><path d="M0 -50.4L39.4 -31.4L49.1 11.2L21.9 45.4L-21.9 45.4L-49.1 11.2L-39.4 -31.4Z" fill="none" stroke="#1b7d9c" stroke-width="2"></path></g><g transform="translate(389 332)"><path d="M0 -36L28.1 -22.4L35.1 8L15.6 32.4L-15.6 32.4L-35.1 8L-28.1 -22.4Z" fill="none" stroke="#1b7d9c" stroke-width="2"></path></g><g transform="translate(896 256)"><path d="M0 -46L36 -28.7L44.8 10.2L20 41.4L-20 41.4L-44.8 10.2L-36 -28.7Z" fill="none" stroke="#1b7d9c" stroke-width="2"></path></g><g transform="translate(212 174)"><path d="M0 -41L32.1 -25.6L40 9.1L17.8 36.9L-17.8 36.9L-40 9.1L-32.1 -25.6Z" fill="none" stroke="#1b7d9c" stroke-width="2"></path></g><g transform="translate(226 314)"><path d="M0 -42L32.8 -26.2L40.9 9.3L18.2 37.8L-18.2 37.8L-40.9 9.3L-32.8 -26.2Z" fill="none" stroke="#1b7d9c" stroke-width="2"></path></g><g transform="translate(944 49)"><path d="M0 -15L11.7 -9.4L14.6 3.3L6.5 13.5L-6.5 13.5L-14.6 3.3L-11.7 -9.4Z" fill="none" stroke="#1b7d9c" stroke-width="2"></path></g><g transform="translate(539 53)"><path d="M0 -12L9.4 -7.5L11.7 2.7L5.2 10.8L-5.2 10.8L-11.7 2.7L-9.4 -7.5Z" fill="none" stroke="#1b7d9c" stroke-width="2"></path></g><g transform="translate(516 184)"><path d="M0 -14L10.9 -8.7L13.6 3.1L6.1 12.6L-6.1 12.6L-13.6 3.1L-10.9 -8.7Z" fill="none" stroke="#1b7d9c" stroke-width="2"></path></g><g transform="translate(317 225)"><path d="M0 -48L37.5 -29.9L46.8 10.7L20.8 43.2L-20.8 43.2L-46.8 10.7L-37.5 -29.9Z" fill="none" stroke="#1b7d9c" stroke-width="2"></path></g><g transform="translate(689 56)"><path d="M0 -19L14.9 -11.8L18.5 4.2L8.2 17.1L-8.2 17.1L-18.5 4.2L-14.9 -11.8Z" fill="none" stroke="#1b7d9c" stroke-width="2"></path></g><g transform="translate(648 490)"><path d="M0 -36L28.1 -22.4L35.1 8L15.6 32.4L-15.6 32.4L-35.1 8L-28.1 -22.4Z" fill="none" stroke="#1b7d9c" stroke-width="2"></path></g><g transform="translate(926 511)"><path d="M0 -38L29.7 -23.7L37 8.5L16.5 34.2L-16.5 34.2L-37 8.5L-29.7 -23.7Z" fill="none" stroke="#1b7d9c" stroke-width="2"></path></g><g transform="translate(413 505)"><path d="M0 -26L20.3 -16.2L25.3 5.8L11.3 23.4L-11.3 23.4L-25.3 5.8L-20.3 -16.2Z" fill="none" stroke="#1b7d9c" stroke-width="2"></path></g><g transform="translate(226 490)"><path d="M0 -41L32.1 -25.6L40 9.1L17.8 36.9L-17.8 36.9L-40 9.1L-32.1 -25.6Z" fill="none" stroke="#1b7d9c" stroke-width="2"></path></g><g transform="translate(30 66)"><path d="M0 -24L18.8 -15L23.4 5.3L10.4 21.6L-10.4 21.6L-23.4 5.3L-18.8 -15Z" fill="none" stroke="#1b7d9c" stroke-width="2"></path></g><g transform="translate(88 211)"><path d="M0 -13L10.2 -8.1L12.7 2.9L5.6 11.7L-5.6 11.7L-12.7 2.9L-10.2 -8.1Z" fill="none" stroke="#1b7d9c" stroke-width="2"></path></g><g transform="translate(775 462)"><path d="M0 -43L33.6 -26.8L41.9 9.6L18.7 38.7L-18.7 38.7L-41.9 9.6L-33.6 -26.8Z" fill="none" stroke="#1b7d9c" stroke-width="2"></path></g><g transform="translate(688 386)"><path d="M0 -46L36 -28.7L44.8 10.2L20 41.4L-20 41.4L-44.8 10.2L-36 -28.7Z" fill="none" stroke="#1b7d9c" stroke-width="2"></path></g><g transform="translate(413 22)"><path d="M0 -28L21.9 -17.5L27.3 6.2L12.1 25.2L-12.1 25.2L-27.3 6.2L-21.9 -17.5Z" fill="none" stroke="#1b7d9c" stroke-width="2"></path></g><g transform="translate(849 89)"><path d="M0 -47L36.7 -29.3L45.8 10.5L20.4 42.3L-20.4 42.3L-45.8 10.5L-36.7 -29.3Z" fill="none" stroke="#1b7d9c" stroke-width="2"></path></g><g transform="translate(720 273)"><path d="M0 -22L17.2 -13.7L21.4 4.9L9.5 19.8L-9.5 19.8L-21.4 4.9L-17.2 -13.7Z" fill="none" stroke="#1b7d9c" stroke-width="2"></path></g><g transform="translate(257 19)"><path d="M0 -49L38.3 -30.6L47.8 10.9L21.3 44.1L-21.3 44.1L-47.8 10.9L-38.3 -30.6Z" fill="none" stroke="#1b7d9c" stroke-width="2"></path></g><g transform="translate(893 377)"><path d="M0 -25L19.5 -15.6L24.4 5.6L10.8 22.5L-10.8 22.5L-24.4 5.6L-19.5 -15.6Z" fill="none" stroke="#1b7d9c" stroke-width="2"></path></g><g transform="translate(548 529)"><path d="M0 -46L36 -28.7L44.8 10.2L20 41.4L-20 41.4L-44.8 10.2L-36 -28.7Z" fill="none" stroke="#1b7d9c" stroke-width="2"></path></g><g transform="translate(753 154)"><path d="M0 -34L26.6 -21.2L33.1 7.6L14.8 30.6L-14.8 30.6L-33.1 7.6L-26.6 -21.2Z" fill="none" stroke="#1b7d9c" stroke-width="2"></path></g><g transform="translate(318 446)"><path d="M0 -36L28.1 -22.4L35.1 8L15.6 32.4L-15.6 32.4L-35.1 8L-28.1 -22.4Z" fill="none" stroke="#1b7d9c" stroke-width="2"></path></g><g transform="translate(529 288)"><path d="M0 -24L18.8 -15L23.4 5.3L10.4 21.6L-10.4 21.6L-23.4 5.3L-18.8 -15Z" fill="none" stroke="#1b7d9c" stroke-width="2"></path></g><g transform="translate(38 475)"><path d="M0 -31L24.2 -19.3L30.2 6.9L13.5 27.9L-13.5 27.9L-30.2 6.9L-24.2 -19.3Z" fill="none" stroke="#1b7d9c" stroke-width="2"></path></g><g transform="translate(431 130)"><path d="M0 -30L23.5 -18.7L29.2 6.7L13 27L-13 27L-29.2 6.7L-23.5 -18.7Z" fill="none" stroke="#1b7d9c" stroke-width="2"></path></g><g transform="translate(147 89)"><path d="M0 -34L26.6 -21.2L33.1 7.6L14.8 30.6L-14.8 30.6L-33.1 7.6L-26.6 -21.2Z" fill="none" stroke="#1b7d9c" stroke-width="2"></path></g><g transform="translate(619 229)"><path d="M0 -35L27.4 -21.8L34.1 7.8L15.2 31.5L-15.2 31.5L-34.1 7.8L-27.4 -21.8Z" fill="none" stroke="#1b7d9c" stroke-width="2"></path></g><g transform="translate(555 390)"><path d="M0 -17L13.3 -10.6L16.6 3.8L7.4 15.3L-7.4 15.3L-16.6 3.8L-13.3 -10.6Z" fill="none" stroke="#1b7d9c" stroke-width="2"></path></g><g transform="translate(320 100)"><path d="M0 -45L35.2 -28.1L43.9 10L19.5 40.5L-19.5 40.5L-43.9 10L-35.2 -28.1Z" fill="none" stroke="#1b7d9c" stroke-width="2"></path></g><g transform="translate(787 358)"><path d="M0 -28L21.9 -17.5L27.3 6.2L12.1 25.2L-12.1 25.2L-27.3 6.2L-21.9 -17.5Z" fill="none" stroke="#1b7d9c" stroke-width="2"></path></g><g transform="translate(954 166)"><path d="M0 -20L15.6 -12.5L19.5 4.5L8.7 18L-8.7 18L-19.5 4.5L-15.6 -12.5Z" fill="none" stroke="#1b7d9c" stroke-width="2"></path></g><g transform="translate(429 240)"><path d="M0 -28L21.9 -17.5L27.3 6.2L12.1 25.2L-12.1 25.2L-27.3 6.2L-21.9 -17.5Z" fill="none" stroke="#1b7d9c" stroke-width="2"></path></g></g></svg>