<svg id="visual" viewBox="0 0 960 540" width="960" height="540" xmlns="http://www.w3.org/2000/svg" xmlns:xlink="http://www.w3.org/1999/xlink" version="1.1"><path d="M0 39L22.8 53.3C45.7 67.7 91.3 96.3 137 95.3C182.7 94.3 228.3 63.7 274 60.2C319.7 56.7 365.3 80.3 411.2 93C457 105.7 503 107.3 548.8 106.3C594.7 105.3 640.3 101.7 686 90.8C731.7 80 777.3 62 823 70.2C868.7 78.3 914.3 112.7 937.2 129.8L960 147L960 0L937.2 0C914.3 0 868.7 0 823 0C777.3 0 731.7 0 686 0C640.3 0 594.7 0 548.8 0C503 0 457 0 411.2 0C365.3 0 319.7 0 274 0C228.3 0 182.7 0 137 0C91.3 0 45.7 0 22.8 0L0 0Z" fill="#004bbc"></path><path d="M0 147L22.8 187.5C45.7 228 91.3 309 137 337.8C182.7 366.7 228.3 343.3 274 321.7C319.7 300 365.3 280 411.2 274.5C457 269 503 278 548.8 258.2C594.7 238.3 640.3 189.7 686 177.2C731.7 164.7 777.3 188.3 823 198.3C868.7 208.3 914.3 204.7 937.2 202.8L960 201L960 145L937.2 127.8C914.3 110.7 868.7 76.3 823 68.2C777.3 60 731.7 78 686 88.8C640.3 99.7 594.7 103.3 548.8 104.3C503 105.3 457 103.7 411.2 91C365.3 78.3 319.7 54.7 274 58.2C228.3 61.7 182.7 92.3 137 93.3C91.3 94.3 45.7 65.7 22.8 51.3L0 37Z" fill="#0055d6"></path><path d="M0 174L22.8 220.8C45.7 267.7 91.3 361.3 137 391C182.7 420.7 228.3 386.3 274 359.3C319.7 332.3 365.3 312.7 411.2 306.3C457 300 503 307 548.8 292.5C594.7 278 640.3 242 686 239.3C731.7 236.7 777.3 267.3 823 279C868.7 290.7 914.3 283.3 937.2 279.7L960 276L960 199L937.2 200.8C914.3 202.7 868.7 206.3 823 196.3C777.3 186.3 731.7 162.7 686 175.2C640.3 187.7 594.7 236.3 548.8 256.2C503 276 457 267 411.2 272.5C365.3 278 319.7 298 274 319.7C228.3 341.3 182.7 364.7 137 335.8C91.3 307 45.7 226 22.8 185.5L0 145Z" fill="#005ff1"></path><path d="M0 260L22.8 297.8C45.7 335.7 91.3 411.3 137 432C182.7 452.7 228.3 418.3 274 404.8C319.7 391.3 365.3 398.7 411.2 402.3C457 406 503 406 548.8 379C594.7 352 640.3 298 686 286.3C731.7 274.7 777.3 305.3 823 326C868.7 346.7 914.3 357.3 937.2 362.7L960 368L960 274L937.2 277.7C914.3 281.3 868.7 288.7 823 277C777.3 265.3 731.7 234.7 686 237.3C640.3 240 594.7 276 548.8 290.5C503 305 457 298 411.2 304.3C365.3 310.7 319.7 330.3 274 357.3C228.3 384.3 182.7 418.7 137 389C91.3 359.3 45.7 265.7 22.8 218.8L0 172Z" fill="#1f6fff"></path><path d="M0 460L22.8 467.2C45.7 474.3 91.3 488.7 137 487.8C182.7 487 228.3 471 274 459.3C319.7 447.7 365.3 440.3 411.2 441.2C457 442 503 451 548.8 449.2C594.7 447.3 640.3 434.7 686 433.8C731.7 433 777.3 444 823 463C868.7 482 914.3 509 937.2 522.5L960 536L960 366L937.2 360.7C914.3 355.3 868.7 344.7 823 324C777.3 303.3 731.7 272.7 686 284.3C640.3 296 594.7 350 548.8 377C503 404 457 404 411.2 400.3C365.3 396.7 319.7 389.3 274 402.8C228.3 416.3 182.7 450.7 137 430C91.3 409.3 45.7 333.7 22.8 295.8L0 258Z" fill="#4283ff"></path><path d="M0 541L22.8 541C45.7 541 91.3 541 137 541C182.7 541 228.3 541 274 541C319.7 541 365.3 541 411.2 541C457 541 503 541 548.8 541C594.7 541 640.3 541 686 541C731.7 541 777.3 541 823 541C868.7 541 914.3 541 937.2 541L960 541L960 534L937.2 520.5C914.3 507 868.7 480 823 461C777.3 442 731.7 431 686 431.8C640.3 432.7 594.7 445.3 548.8 447.2C503 449 457 440 411.2 439.2C365.3 438.3 319.7 445.7 274 457.3C228.3 469 182.7 485 137 485.8C91.3 486.7 45.7 472.3 22.8 465.2L0 458Z" fill="#6097ff"></path></svg>