<svg id="visual" viewBox="0 0 960 540" width="960" height="540" xmlns="http://www.w3.org/2000/svg" xmlns:xlink="http://www.w3.org/1999/xlink" version="1.1"><path d="M0 23L320 28L640 17L960 71L960 0L640 0L320 0L0 0Z" fill="#6371a3"></path><path d="M0 98L320 66L640 131L960 179L960 69L640 15L320 26L0 21Z" fill="#596596"></path><path d="M0 168L320 120L640 147L960 212L960 177L640 129L320 64L0 96Z" fill="#4f5988"></path><path d="M0 190L320 179L640 201L960 228L960 210L640 145L320 118L0 166Z" fill="#464e7b"></path><path d="M0 314L320 417L640 309L960 303L960 226L640 199L320 177L0 188Z" fill="#3c426f"></path><path d="M0 363L320 433L640 352L960 357L960 301L640 307L320 415L0 312Z" fill="#333862"></path><path d="M0 530L320 487L640 525L960 514L960 355L640 350L320 431L0 361Z" fill="#292d55"></path><path d="M0 541L320 541L640 541L960 541L960 512L640 523L320 485L0 528Z" fill="#202349"></path></svg>